<svg width="56" height="53" viewBox="0 0 56 53" fill="none" xmlns="http://www.w3.org/2000/svg">
<rect width="56" height="55" transform="translate(0 -2)" fill="#A9E5A4"/>
<g clip-path="url(#clip0_329_1161)">
<path d="M16 21.5V18.5C16 18.1022 16.1806 17.7206 16.5021 17.4393C16.8236 17.158 17.2596 17 17.7143 17H19.4286V15.5C19.4286 15.1022 19.6092 14.7206 19.9307 14.4393C20.2522 14.158 20.6882 14 21.1429 14C21.5975 14 22.0335 14.158 22.355 14.4393C22.6765 14.7206 22.8571 15.1022 22.8571 15.5V17H33.1429V15.5C33.1429 15.1022 33.3235 14.7206 33.645 14.4393C33.9665 14.158 34.4025 14 34.8571 14C35.3118 14 35.7478 14.158 36.0693 14.4393C36.3908 14.7206 36.5714 15.1022 36.5714 15.5V17H38.2857C38.7404 17 39.1764 17.158 39.4979 17.4393C39.8194 17.7206 40 18.1022 40 18.5V21.5H16ZM16 23V36.5C16 36.8978 16.1806 37.2794 16.5021 37.5607C16.8236 37.842 17.2596 38 17.7143 38H38.2857C38.7404 38 39.1764 37.842 39.4979 37.5607C39.8194 37.2794 40 36.8978 40 36.5V23H16Z" fill="black"/>
</g>
<defs>
<clipPath id="clip0_329_1161">
<rect width="24" height="24" fill="white" transform="translate(16 14)"/>
</clipPath>
</defs>
</svg>
