<svg width="44" height="44" viewBox="0 0 44 44" fill="none" xmlns="http://www.w3.org/2000/svg">
<path fill-rule="evenodd" clip-rule="evenodd" d="M12.93 1.09546C15.276 0.990989 16.024 0.967773 22 0.967773C27.976 0.967773 28.724 0.992924 31.068 1.09546C33.412 1.198 35.012 1.55978 36.412 2.08408C37.878 2.61998 39.208 3.45769 40.308 4.54111C41.428 5.60324 42.292 6.88786 42.844 8.3079C43.388 9.66217 43.76 11.2099 43.868 13.4735C43.976 15.7467 44 16.4703 44 22.2491C44 28.0299 43.974 28.7535 43.868 31.0228C43.762 33.2864 43.388 34.8341 42.844 36.1884C42.292 37.6086 41.4266 38.8954 40.308 39.9591C39.208 41.0425 37.878 41.8783 36.412 42.4122C35.012 42.9385 33.412 43.2983 31.072 43.4028C28.724 43.5073 27.976 43.5305 22 43.5305C16.024 43.5305 15.276 43.5053 12.93 43.4028C10.59 43.3002 8.99 42.9385 7.59 42.4122C6.12184 41.8782 4.79164 41.041 3.692 39.9591C2.57276 38.8963 1.70663 37.6102 1.154 36.1903C0.612 34.8361 0.24 33.2883 0.132 31.0248C0.024 28.7515 0 28.028 0 22.2491C0 16.4683 0.026 15.7448 0.132 13.4773C0.238 11.2099 0.612 9.66217 1.154 8.3079C1.70745 6.88802 2.57424 5.60191 3.694 4.53917C4.79208 3.45673 6.12094 2.6189 7.588 2.08408C8.988 1.55978 10.588 1.19993 12.928 1.09546H12.93ZM30.89 4.9261C28.57 4.82357 27.874 4.80229 22 4.80229C16.126 4.80229 15.43 4.82357 13.11 4.9261C10.964 5.0209 9.8 5.36721 9.024 5.65934C7.998 6.04628 7.264 6.50479 6.494 7.24964C5.76409 7.93655 5.20236 8.77277 4.85 9.697C4.548 10.4476 4.19 11.5736 4.092 13.6495C3.986 15.8937 3.964 16.567 3.964 22.2491C3.964 27.9312 3.986 28.6045 4.092 30.8487C4.19 32.9246 4.548 34.0506 4.85 34.8013C5.202 35.7241 5.764 36.5618 6.494 37.2486C7.204 37.9548 8.07 38.4984 9.024 38.8389C9.8 39.131 10.964 39.4773 13.11 39.5721C15.43 39.6747 16.124 39.696 22 39.696C27.876 39.696 28.57 39.6747 30.89 39.5721C33.036 39.4773 34.2 39.131 34.976 38.8389C36.002 38.452 36.736 37.9935 37.506 37.2486C38.236 36.5618 38.798 35.7241 39.15 34.8013C39.452 34.0506 39.81 32.9246 39.908 30.8487C40.014 28.6045 40.036 27.9312 40.036 22.2491C40.036 16.567 40.014 15.8937 39.908 13.6495C39.81 11.5736 39.452 10.4476 39.15 9.697C38.75 8.70451 38.276 7.99449 37.506 7.24964C36.7959 6.54362 35.9314 6.00025 34.976 5.65934C34.2 5.36721 33.036 5.0209 30.89 4.9261ZM19.19 28.8096C20.7593 29.4415 22.5068 29.5268 24.1339 29.0509C25.761 28.575 27.1668 27.5674 28.1112 26.2002C29.0557 24.833 29.4801 23.1911 29.3121 21.5548C29.1441 19.9185 28.394 18.3894 27.19 17.2287C26.4225 16.4867 25.4944 15.9185 24.4727 15.5651C23.4509 15.2117 22.3609 15.0819 21.281 15.1849C20.2011 15.2879 19.1583 15.6213 18.2276 16.161C17.2969 16.7007 16.5015 17.4332 15.8986 18.306C15.2957 19.1787 14.9004 20.1699 14.741 21.2082C14.5817 22.2465 14.6623 23.306 14.9771 24.3105C15.2919 25.3151 15.833 26.2396 16.5614 27.0175C17.2899 27.7955 18.1876 28.4075 19.19 28.8096ZM14.004 14.5143C15.054 13.4986 16.3006 12.6928 17.6726 12.1431C19.0446 11.5934 20.515 11.3105 22 11.3105C23.485 11.3105 24.9554 11.5934 26.3274 12.1431C27.6994 12.6928 28.946 13.4986 29.996 14.5143C31.0461 15.5301 31.879 16.7359 32.4473 18.0631C33.0156 19.3902 33.3081 20.8126 33.3081 22.2491C33.3081 23.6856 33.0156 25.108 32.4473 26.4352C31.879 27.7623 31.0461 28.9682 29.996 29.9839C27.8753 32.0353 24.9991 33.1878 22 33.1878C19.0009 33.1878 16.1247 32.0353 14.004 29.9839C11.8833 27.9325 10.6919 25.1502 10.6919 22.2491C10.6919 19.348 11.8833 16.5657 14.004 14.5143ZM35.816 12.9395C36.0762 12.7021 36.2845 12.4165 36.4286 12.0998C36.5727 11.7831 36.6496 11.4416 36.6548 11.0956C36.66 10.7496 36.5934 10.4061 36.459 10.0855C36.3245 9.76485 36.1249 9.47356 35.8719 9.22888C35.619 8.9842 35.3179 8.7911 34.9864 8.66102C34.6549 8.53093 34.2998 8.4665 33.9421 8.47154C33.5845 8.47659 33.2315 8.551 32.9041 8.69038C32.5766 8.82976 32.2815 9.03127 32.036 9.28298C31.5586 9.7725 31.2973 10.4227 31.3074 11.0956C31.3175 11.7685 31.5984 12.4111 32.0903 12.887C32.5822 13.3628 33.2465 13.6345 33.9421 13.6443C34.6378 13.6541 35.3099 13.4013 35.816 12.9395Z" fill="white"/>
</svg>
