<svg width="42" height="42" viewBox="0 0 42 42" fill="none" xmlns="http://www.w3.org/2000/svg">
<path d="M21 0C15.4324 0.0062253 10.0945 2.22072 6.15763 6.15763C2.22072 10.0945 0.0062253 15.4324 0 21C0.00932854 26.5667 2.22482 31.9027 6.16106 35.8389C10.0973 39.7752 15.4333 41.9907 21 42C26.5695 42 31.911 39.7875 35.8492 35.8492C39.7875 31.911 42 26.5695 42 21C42 15.4305 39.7875 10.089 35.8492 6.15076C31.911 2.21249 26.5695 0 21 0ZM33.773 33.1178C32.5936 30.739 30.7729 28.737 28.5163 27.3379C26.2596 25.9388 23.6569 25.1981 21.0017 25.1995C18.3465 25.2009 15.7446 25.9443 13.4894 27.3458C11.2342 28.7473 9.41561 30.7512 8.23872 33.1313C5.09866 29.8746 3.34898 25.5239 3.36 21C3.36 16.3216 5.21849 11.8348 8.52664 8.52664C11.8348 5.21849 16.3216 3.36 21 3.36C25.6784 3.36 30.1652 5.21849 33.4734 8.52664C36.7815 11.8348 38.64 16.3216 38.64 21C38.6505 25.5176 36.9054 29.8625 33.773 33.1178ZM21 8.4C19.5048 8.4 18.0431 8.84339 16.7999 9.67409C15.5567 10.5048 14.5877 11.6855 14.0155 13.0669C13.4433 14.4483 13.2936 15.9684 13.5853 17.4349C13.877 18.9014 14.597 20.2484 15.6543 21.3057C16.7116 22.363 18.0586 23.083 19.5251 23.3747C20.9916 23.6664 22.5117 23.5167 23.8931 22.9445C25.2745 22.3723 26.4552 21.4033 27.2859 20.1601C28.1166 18.9169 28.56 17.4552 28.56 15.96C28.56 14.9672 28.3645 13.9841 27.9845 13.0669C27.6046 12.1497 27.0477 11.3163 26.3457 10.6143C25.6437 9.91226 24.8103 9.3554 23.8931 8.97547C22.9759 8.59554 21.9928 8.4 21 8.4Z" fill="black"/>
<path d="M21 0C15.4324 0.0062253 10.0945 2.22072 6.15763 6.15763C2.22072 10.0945 0.0062253 15.4324 0 21C0.00932854 26.5667 2.22482 31.9027 6.16106 35.8389C10.0973 39.7752 15.4333 41.9907 21 42C26.5695 42 31.911 39.7875 35.8492 35.8492C39.7875 31.911 42 26.5695 42 21C42 15.4305 39.7875 10.089 35.8492 6.15076C31.911 2.21249 26.5695 0 21 0ZM33.773 33.1178C32.5936 30.739 30.7729 28.737 28.5163 27.3379C26.2596 25.9388 23.6569 25.1981 21.0017 25.1995C18.3465 25.2009 15.7446 25.9443 13.4894 27.3458C11.2342 28.7473 9.41561 30.7512 8.23872 33.1313C5.09866 29.8746 3.34898 25.5239 3.36 21C3.36 16.3216 5.21849 11.8348 8.52664 8.52664C11.8348 5.21849 16.3216 3.36 21 3.36C25.6784 3.36 30.1652 5.21849 33.4734 8.52664C36.7815 11.8348 38.64 16.3216 38.64 21C38.6505 25.5176 36.9054 29.8625 33.773 33.1178ZM21 8.4C19.5048 8.4 18.0431 8.84339 16.7999 9.67409C15.5567 10.5048 14.5877 11.6855 14.0155 13.0669C13.4433 14.4483 13.2936 15.9684 13.5853 17.4349C13.877 18.9014 14.597 20.2484 15.6543 21.3057C16.7116 22.363 18.0586 23.083 19.5251 23.3747C20.9916 23.6664 22.5117 23.5167 23.8931 22.9445C25.2745 22.3723 26.4552 21.4033 27.2859 20.1601C28.1166 18.9169 28.56 17.4552 28.56 15.96C28.56 14.9672 28.3645 13.9841 27.9845 13.0669C27.6046 12.1497 27.0477 11.3163 26.3457 10.6143C25.6437 9.91226 24.8103 9.3554 23.8931 8.97547C22.9759 8.59554 21.9928 8.4 21 8.4Z" fill="black" fill-opacity="0.2"/>
</svg>
