<svg width="46" height="46" viewBox="0 0 46 46" fill="none" xmlns="http://www.w3.org/2000/svg">
<path d="M23 0.902344C10.2987 0.902344 0 10.8646 0 23.151C0 35.4374 10.2987 45.3997 23 45.3997C35.7013 45.3997 46 35.4374 46 23.151C46 10.8646 35.7013 0.902344 23 0.902344ZM34.0533 17.6733C34.0688 17.9067 34.0687 18.15 34.0687 18.3884C34.0687 25.6788 28.329 34.0767 17.8404 34.0767C14.606 34.0767 11.6078 33.1679 9.08192 31.6035C9.54397 31.6532 9.98549 31.673 10.4578 31.673C13.1275 31.673 15.5815 30.799 17.5375 29.319C15.0321 29.2694 12.9272 27.6802 12.2085 25.4951C13.0864 25.6192 13.877 25.6192 14.7806 25.3957C13.4906 25.1422 12.3311 24.4645 11.4991 23.4777C10.6671 22.4909 10.2139 21.2559 10.2165 19.9826V19.913C10.9712 20.3252 11.8594 20.5785 12.7886 20.6133C12.0075 20.1097 11.3668 19.4274 10.9235 18.6269C10.4802 17.8265 10.248 16.9326 10.2473 16.0245C10.2473 14.9965 10.5246 14.0579 11.0225 13.2434C12.4544 14.9485 14.2412 16.343 16.2667 17.3364C18.2922 18.3297 20.5111 18.8997 22.7792 19.0092C21.9732 15.2597 24.8688 12.2253 28.3496 12.2253C29.9924 12.2253 31.471 12.8908 32.5132 13.9635C33.8018 13.7301 35.0339 13.2633 36.1326 12.6375C35.7065 13.9138 34.8132 14.9915 33.6272 15.6719C34.7772 15.5527 35.8862 15.2448 36.9129 14.8127C36.1377 15.9152 35.1674 16.8936 34.0533 17.6733Z" fill="white"/>
</svg>
